<?xml version="1.0" standalone="no"?>
<!DOCTYPE svg PUBLIC "-//W3C//DTD SVG 20010904//EN"
 "http://www.w3.org/TR/2001/REC-SVG-20010904/DTD/svg10.dtd">
<svg version="1.0" xmlns="http://www.w3.org/2000/svg"
 width="331.000000pt" height="331.000000pt" viewBox="0 0 331.000000 331.000000"
 preserveAspectRatio="xMidYMid meet">
<metadata>
Created by potrace 1.14, written by Peter Selinger 2001-2017
</metadata>
<g transform="translate(0.000000,331.000000) scale(0.100000,-0.100000)"
fill="#000000" stroke="none">
<path d="M1790 3297 c0 -4 -27 -128 -60 -275 -34 -147 -85 -377 -116 -512 -30
-135 -56 -251 -59 -257 -3 -8 -57 21 -149 80 -213 135 -226 143 -286 178 -30
18 -57 35 -60 38 -3 3 -14 11 -25 18 -11 6 -60 37 -110 69 -255 162 -299 187
-283 162 18 -27 104 -164 128 -203 8 -14 110 -176 227 -361 127 -201 207 -337
200 -339 -12 -5 -845 -193 -875 -198 -40 -7 -172 -41 -169 -43 2 -2 137 -34
207 -49 8 -2 188 -42 400 -90 212 -49 399 -91 415 -94 17 -4 29 -10 28 -14 -1
-8 -145 -237 -285 -457 -19 -30 -59 -93 -88 -140 -29 -47 -68 -109 -86 -137
-60 -93 -101 -158 -109 -172 -10 -17 -23 -25 204 119 767 485 720 457 722 428
1 -22 -1 -12 94 -428 13 -58 49 -217 80 -355 31 -137 57 -251 59 -252 3 -3 30
115 151 652 47 209 88 386 90 392 3 9 13 7 37 -8 91 -56 364 -229 373 -237 6
-4 50 -32 98 -62 48 -30 99 -62 112 -70 13 -8 57 -35 97 -60 40 -24 75 -47 78
-50 3 -3 23 -17 45 -30 22 -13 51 -31 65 -39 21 -14 23 -14 15 -1 -5 8 -133
211 -284 450 -151 239 -276 442 -278 451 -4 12 16 20 99 38 57 12 110 24 118
26 8 2 78 17 155 35 77 17 185 42 240 55 55 13 115 26 133 30 l32 7 0 64 c0
35 -1 64 -3 64 -3 0 -299 66 -337 75 -8 2 -46 11 -85 19 -245 55 -356 83 -356
89 -1 5 91 153 203 329 111 176 205 326 207 331 2 6 8 16 13 22 5 5 23 33 40
60 17 28 46 73 63 100 17 28 36 56 40 64 9 15 -30 -6 -110 -59 -22 -15 -121
-78 -220 -139 -99 -62 -196 -123 -215 -136 -131 -85 -347 -219 -360 -222 -14
-4 -20 9 -32 69 -12 58 -87 390 -103 458 -2 8 -13 56 -24 105 -81 364 -101
446 -101 412z"/>
</g>
</svg>
